inDegrees=no
num_controls=7
num_derivatives=13
num_iterations=122
num_multipliers=7
num_parameters=0
num_slacks=7
num_states=26
objective=0.546454
objective_accelerations=0.040839
objective_balance=0.003662
objective_effort=0.039497
objective_height=0.453050
objective_ligament=0.009405
solver_duration=1433.687672
status=Solve_Succeeded
success=true
DataType=double
version=3
OpenSimVersion=4.5
endheader
time	/jointset/ground_pelvis/pelvis_tilt/value	/jointset/ground_pelvis/pelvis_tx/value	/jointset/ground_pelvis/pelvis_ty/value	/jointset/hip_r/hip_flexion_r/value	/jointset/hip_r/hip_adduction_r/value	/jointset/hip_r/hip_rotation_r/value	/jointset/back/lumbar_extension/value	/jointset/patellofemoral_r/patellar_flexion_r/value	/jointset/knee_r/knee_flexion_r/value	/jointset/knee_r/knee_adduction_r/value	/jointset/knee_r/knee_rotation_r/value	/jointset/ankle_r/ankle_angle_r/value	/jointset/subtalar_r/subtalar_angle_r/value	/jointset/ground_pelvis/pelvis_tilt/speed	/jointset/ground_pelvis/pelvis_tx/speed	/jointset/ground_pelvis/pelvis_ty/speed	/jointset/hip_r/hip_flexion_r/speed	/jointset/hip_r/hip_adduction_r/speed	/jointset/hip_r/hip_rotation_r/speed	/jointset/back/lumbar_extension/speed	/jointset/patellofemoral_r/patellar_flexion_r/speed	/jointset/knee_r/knee_flexion_r/speed	/jointset/knee_r/knee_adduction_r/speed	/jointset/knee_r/knee_rotation_r/speed	/jointset/ankle_r/ankle_angle_r/speed	/jointset/subtalar_r/subtalar_angle_r/speed	/forceset/tau_hip_flexion_r	/forceset/tau_hip_adduction_r	/forceset/tau_hip_rotation_r	/forceset/tau_knee_flexion_r	/forceset/tau_ankle_angle_r	/forceset/tau_subtalar_angle_r	/forceset/tau_lumbar_extension	lambda_cid13_p0	lambda_cid14_p0	lambda_cid14_p1	lambda_cid14_p2	lambda_cid14_p3	lambda_cid14_p4	lambda_cid14_p5	/jointset/ground_pelvis/pelvis_tilt/accel	/jointset/ground_pelvis/pelvis_tx/accel	/jointset/ground_pelvis/pelvis_ty/accel	/jointset/hip_r/hip_flexion_r/accel	/jointset/hip_r/hip_adduction_r/accel	/jointset/hip_r/hip_rotation_r/accel	/jointset/back/lumbar_extension/accel	/jointset/patellofemoral_r/patellar_flexion_r/accel	/jointset/knee_r/knee_flexion_r/accel	/jointset/knee_r/knee_adduction_r/accel	/jointset/knee_r/knee_rotation_r/accel	/jointset/ankle_r/ankle_angle_r/accel	/jointset/subtalar_r/subtalar_angle_r/accel	gamma_cid13_p0	gamma_cid14_p0	gamma_cid14_p1	gamma_cid14_p2	gamma_cid14_p3	gamma_cid14_p4	gamma_cid14_p5
1	-0.3608548222524313	-0.03318093039250365	0.7124077246572349	1.403041445852216	-0.2311606144819452	-0.06454696613315859	-0.4363281374300841	1.159456249315746	1.159456249316599	-0.0289588669761606	0.1745287291909139	0.3061355986496828	0.06675872659974318	-0.0007218675343838985	0.002872745334085046	0.013250411159567	-0.03629264481501913	0.00137719141147122	-0.009426461950994142	-0.0001828953401945586	-0.04590254508035998	-0.04590254508036137	0.001356752622334033	-1.256022838142379e-05	-0.0102556021063177	-0.001048219541594118	-0.313517945827654	0.01472476061296297	0.01250771748989313	-0.4049900675615772	0.04641080053916157	-0.0005634252075277399	0.3149158480309939	-3.037256685642394	-33.52374948126396	-5.545597963949706	0.6943095256228173	14.31440671204022	-781.6176095270955	53.15841831916319	1.587496991505922	0.179935994922717	1.412192186830301	-5.041720030741119	0.07659524575328858	-0.7185430177005823	-0.02251570816373407	-4.332315036650774	-4.332315036651279	0.3704112898431642	0.007583043062441871	-1.034753022960854	-0.1983580206034645	5.899320282071e-10	4.244565708364798e-11	6.97977860715962e-09	6.324963729189524e-09	1.229069247512464e-09	-2.939824978034341e-09	5.786234044024096e-09
1.01	-0.3607833196964985	-0.03314319259688232	0.7126107035009225	1.402427256167663	-0.2311429678493555	-0.06467657785790744	-0.4363301751726883	1.158780789956382	1.158780789956872	-0.02892638099983983	0.1745286354711876	0.305981318096138	0.06673838368208354	0.01502787891227699	0.004679953698866268	0.02734507099487617	-0.08655719647864918	0.002152096726777387	-0.01649287970225956	-0.000212955696835585	-0.0891946299300768	-0.08919462993008465	0.005145912492171752	-6.941907250755757e-06	-0.0205997230632299	-0.003020080448041722	-0.3135270263458145	0.01478816298322223	0.0125155111408018	-0.4047812929946991	0.04648121230799898	-0.000613305862047997	0.3149761979850352	-3.064167523925302	-33.49834732554381	-5.56367452472886	0.6981750608354981	14.23440772508376	-781.5810935600653	53.10379610199401	1.569538945922896	0.181884506673447	1.408058688819	-5.020608079154697	0.07793479263320385	-0.7002408032636402	0.008503422533789228	-4.328450873669026	-4.328450873669625	0.3839905702208875	-0.00305987642325727	-1.034124309421233	-0.1965541341079486	9.654015324190256e-10	3.366494037543196e-10	1.318480406663407e-08	1.138176872143001e-08	1.314274806825877e-09	-5.99722637272769e-09	1.087424663208973e-08
1.02	-0.3605541545811647	-0.0330872284677295	0.7129546201043507	1.401310063897477	-0.2311175728399694	-0.06487676369005596	-0.4363321625943834	1.157672250615616	1.157672250615739	-0.0288558389778905	0.1745285757140579	0.3057236197975511	0.06669833135367098	0.03081064434600585	0.00651801204038263	0.04143796310770416	-0.1368931619415056	0.002926866770641511	-0.02354128343049056	-0.0001728311755526425	-0.1325185413612701	-0.1325185413612808	0.008967961748683799	-5.767708585003784e-06	-0.0309391511147356	-0.004990101692191828	-0.313536106863971	0.01485156535347765	0.01252330479174749	-0.4045725184278203	0.04655162407683391	-0.0006631865165752166	0.31503654793908	-3.108608223733913	-33.48219346810465	-5.580182386711807	0.6981489848097774	14.17064307568043	-781.6892884459888	53.0657141203634	1.594100788919479	0.1861059902697763	1.411838642334071	-5.056002790586417	0.07656819146487029	-0.7149402130937038	-0.008478732578704993	-4.338680352946076	-4.338680352945866	0.3769891671780412	0.006694218569473856	-1.033814441879508	-0.1979900881439635	1.306492672107613e-09	-2.034605386448056e-10	1.897038906813595e-08	1.630151339292142e-08	3.014784343100346e-09	-8.849355716304883e-09	1.509079577302393e-08
1.03	-0.3601673880176975	-0.03301257842053637	0.7134394117252575	1.399689405284141	-0.2310844462891839	-0.0651472846693959	-0.436332029284107	1.156130345781893	1.156130345781744	-0.02874683356211704	0.1745284980503849	0.3053627262301987	0.06663862142911703	0.04650867339239138	0.00843236001130772	0.05551557102053801	-0.1872252924778333	0.003696846527339227	-0.03055382028484162	0.0003488551488217556	-0.1758646487426324	-0.1758646487426439	0.01284671456006099	-1.141066931823292e-05	-0.04122121277585851	-0.006948278733212334	-0.3141761679637228	0.01495464241025413	0.01253627130872256	-0.4039662634326736	0.04642582346377835	-0.0006642910110977929	0.3158110471729432	-3.170934748634234	-33.53246950530089	-5.579790749611451	0.6870362095009374	13.95002487066789	-782.0585976256647	53.02473085819845	1.552555605263025	0.1971545493160548	1.405001000658666	-5.019827339870746	0.07697793704388549	-0.6930469966124182	0.1048966034297048	-4.332909766190756	-4.332909766191044	0.3953607363989313	-0.00443553055617946	-1.022650795596002	-0.1941843117237741	1.647233012158208e-09	-7.520838860344439e-10	2.475169406496465e-08	2.121985948971132e-08	4.731776573017285e-09	-1.169939044711558e-08	1.929845242980372e-08
1.04	-0.3596246608352132	-0.03291817382387144	0.7140648352522728	1.397565823534501	-0.2310436669269761	-0.06548765833228394	-0.4363221982529381	1.154154913107267	1.154154913106842	-0.02859863213857472	0.1745283155616719	0.3048995622927617	0.06655943917422442	0.0620027681493723	0.01046892193474672	0.06956434432940374	-0.2374777892027506	0.004457429054904738	-0.03751182013945774	0.001766713012560701	-0.2192241095423733	-0.219224109542389	0.01680716330269478	-2.673271650916901e-05	-0.05139322513167437	-0.008884567759940887	-0.3148162290634625	0.01505771946702565	0.0125492378257273	-0.4033600084375259	0.04630002285071932	-0.0006653955056290811	0.3165855464068184	-3.25165351359884	-33.59203333509986	-5.577754787716688	0.6719254814557759	13.74444858572148	-782.5741438828094	53.00065413681945	1.553313931038516	0.2105487807725911	1.406071721540453	-5.040076028304347	0.07468874563842114	-0.7040328131467211	0.1707555752942265	-4.341351036621792	-4.341351036622256	0.3933283534293719	0.004758401277944216	-1.01180458081805	-0.1936124852855688	2.024078931305593e-09	-1.606603777571906e-10	3.08833411299384e-08	2.652195978324182e-08	4.197558666891626e-09	-1.392292199463978e-08	2.422069512259876e-08
1.05	-0.3589281424891634	-0.03280277187186288	0.7148305429121926	1.394940305089132	-0.230995349699546	-0.06589731048755686	-0.4362934588736039	1.151745861125716	1.15174586112577	-0.0284103558454773	0.1745279590804375	0.3043352020312586	0.0664609670391246	0.07725174386497793	0.01263400733129084	0.08356619625355305	-0.287591433819997	0.005202968208189633	-0.04440611167804135	0.004158569501154133	-0.2625842924505549	-0.2625842924505438	0.02086733702043251	-4.484665417599557e-05	-0.06146296030289887	-0.01080893936636841	-0.3152538189699601	0.01514321043074572	0.01257196426073436	-0.4025684796095482	0.04626716064754605	-0.0006827303848012253	0.3172495047036634	-3.351395367726125	-33.60504706724256	-5.572646458430587	0.6540740353122692	13.49022729841855	-782.8144196189228	52.96007482707243	1.503316965194737	0.2228699613285852	1.39558997008732	-4.991837977843249	0.07403605992987242	-0.6802529219176457	0.3000116825560861	-4.333053254579061	-4.333053254574822	0.4152531995772307	-0.005131434340113617	-1.00217948632189	-0.1917017652431499	2.402053149799753e-09	4.663895947596464e-10	3.702593638454168e-08	3.183605239542046e-08	3.592990444014649e-09	-1.612687531768628e-08	2.916526862901926e-08
1.06	-0.3580806088712825	-0.0326650427574421	0.7157359386998008	1.391814684337712	-0.2309396671686306	-0.06637553067775999	-0.4362354787299978	1.148903267047752	1.148903267048281	-0.02818089955147606	0.174527414431216	0.303670620117834	0.06634328073457621	0.09220582251550749	0.01493435441719034	0.09750196986711435	-0.33749825041358	0.005930489751729792	-0.05122542712476398	0.007614865866311524	-0.305932528825246	-0.3059325288252093	0.02504316348342202	-6.436631388686744e-05	-0.07143755551601315	-0.01272740164966902	-0.3156914088764474	0.01522870139446027	0.01259469069576387	-0.4017769507815697	0.04623429844436935	-0.0007000652639826941	0.3179134630005185	-3.470920240173135	-33.62731551886086	-5.565739920507013	0.63203094837297	13.24881956262581	-783.2019893434557	52.9370815788867	1.494334518023266	0.2376011186437031	1.392856059422858	-4.998710423571693	0.07108522368946475	-0.6890375947745293	0.3836435506069926	-4.338961729923681	-4.338961729924396	0.416458902479737	0.004477256869149517	-0.9927765891959587	-0.1924306206601841	2.835023255695505e-09	1.376957738920344e-09	4.186206943630162e-08	3.765355519829869e-08	2.613265532193999e-09	-1.804768640700863e-08	3.355897238159858e-08
1.07	-0.3570849423989439	-0.03250363199903274	0.7167803100030773	1.388191063610612	-0.2308768181013951	-0.06692154684627676	-0.4361377757479394	1.145627323338865	1.14562732333896	-0.02790906279620862	0.1745266931033795	0.3029067333361988	0.06620640397606727	0.1068820498221779	0.01737057653923526	0.1113557459392495	-0.3871849169788627	0.006635682622711763	-0.05796199162666034	0.01209093808215886	-0.3492468172063144	-0.3492468172062441	0.02934674549806238	-8.032876115879892e-05	-0.08132709977457502	-0.01464869857643324	-0.315717017185126	0.01521270446029987	0.01262880953753193	-0.4008425419476636	0.04636384963496039	-0.0007032229697811231	0.3182515322577845	-3.611115821828127	-33.57173798121943	-5.533183453011135	0.5992022019593717	12.97187767652911	-783.1636886181973	52.94628426487177	1.447454898441781	0.2500499588430378	1.379152636151126	-4.947497110835759	0.06969912948167027	-0.663593700284531	0.5043701875323392	-4.326253690701522	-4.326253690696022	0.4406978088289256	-0.004687474480302815	-0.9851398898109462	-0.1920788594941126	3.270918674750917e-09	2.302606636891888e-09	4.662870981769755e-08	4.349783513898009e-08	1.613585477344428e-09	-1.995343673921799e-08	3.792337455152677e-08
